#define attn_width 42
#define attn_height 20
static unsigned char attn_bits[] = {
   0x00, 0x00, 0x00, 0x00, 0x00, 0x00, 0x00, 0x00, 0x00, 0x00, 0x00, 0x00,
   0x00, 0x00, 0x00, 0x00, 0x00, 0x00, 0x00, 0x00, 0x00, 0x00, 0x00, 0x00,
   0x00, 0x00, 0x00, 0x00, 0x00, 0x00, 0x00, 0x00, 0x00, 0x00, 0x00, 0x00,
   0x60, 0x00, 0x00, 0x00, 0x00, 0x00, 0x90, 0x44, 0x00, 0x00, 0x00, 0x00,
   0x90, 0xee, 0x14, 0x00, 0x00, 0x00, 0xf0, 0x44, 0x2c, 0x00, 0x00, 0x00,
   0x90, 0x44, 0x24, 0x00, 0x00, 0x00, 0x90, 0x44, 0x24, 0x00, 0x00, 0x00,
   0x90, 0x88, 0x24, 0x00, 0x00, 0x00, 0x00, 0x00, 0x00, 0x00, 0x00, 0x00,
   0x00, 0x00, 0x00, 0x00, 0x00, 0x00, 0x00, 0x00, 0x00, 0x00, 0x00, 0x00,
   0x00, 0x00, 0x00, 0x00, 0x00, 0x00, 0x00, 0x00, 0x00, 0x00, 0x00, 0x00,
   0x00, 0x00, 0x00, 0x00, 0x00, 0x00, 0x00, 0x00, 0x00, 0x00, 0x00, 0x00};
#define btab_width 42
#define btab_height 20
static unsigned char btab_bits[] = {
   0x00, 0x00, 0x00, 0x00, 0x00, 0x00, 0x00, 0x00, 0x00, 0x00, 0x00, 0x00,
   0x00, 0x00, 0x00, 0x00, 0x00, 0x00, 0x00, 0x04, 0x00, 0x00, 0x00, 0x00,
   0x00, 0x04, 0x00, 0x00, 0x00, 0x00, 0x00, 0x04, 0x02, 0x00, 0x00, 0x00,
   0x00, 0x04, 0x03, 0x00, 0x00, 0x00, 0x00, 0x84, 0x03, 0x00, 0x00, 0x00,
   0x00, 0xc4, 0xff, 0xff, 0x03, 0x00, 0x00, 0xe4, 0xff, 0xff, 0x03, 0x00,
   0x00, 0xe4, 0xff, 0xff, 0x03, 0x00, 0x00, 0xc4, 0xff, 0xff, 0x03, 0x00,
   0x00, 0x84, 0x03, 0x00, 0x00, 0x00, 0x00, 0x04, 0x03, 0x00, 0x00, 0x00,
   0x00, 0x04, 0x02, 0x00, 0x00, 0x00, 0x00, 0x04, 0x00, 0x00, 0x00, 0x00,
   0x00, 0x04, 0x00, 0x00, 0x00, 0x00, 0x00, 0x00, 0x00, 0x00, 0x00, 0x00,
   0x00, 0x00, 0x00, 0x00, 0x00, 0x00, 0x00, 0x00, 0x00, 0x00, 0x00, 0x00};
#define clear_width 42
#define clear_height 20
static unsigned char clear_bits[] = {
   0x00, 0x00, 0x00, 0x00, 0x00, 0x00, 0x00, 0x00, 0x00, 0x00, 0x00, 0x00,
   0x00, 0x00, 0x00, 0x00, 0x00, 0x00, 0x00, 0x00, 0x00, 0x00, 0x00, 0x00,
   0x00, 0x00, 0x00, 0x00, 0x00, 0x00, 0x00, 0x00, 0x00, 0x00, 0x00, 0x00,
   0x60, 0x02, 0x00, 0x00, 0x00, 0x00, 0x90, 0x02, 0x00, 0x00, 0x00, 0x00,
   0x10, 0x32, 0xa6, 0x01, 0x00, 0x00, 0x10, 0x4a, 0x68, 0x00, 0x00, 0x00,
   0x10, 0x3a, 0x2e, 0x00, 0x00, 0x00, 0x90, 0x0a, 0x29, 0x00, 0x00, 0x00,
   0x60, 0x72, 0x2e, 0x00, 0x00, 0x00, 0x00, 0x00, 0x00, 0x00, 0x00, 0x00,
   0x00, 0x00, 0x00, 0x00, 0x00, 0x00, 0x00, 0x00, 0x00, 0x00, 0x00, 0x00,
   0x00, 0x00, 0x00, 0x00, 0x00, 0x00, 0x00, 0x00, 0x00, 0x00, 0x00, 0x00,
   0x00, 0x00, 0x00, 0x00, 0x00, 0x00, 0x00, 0x00, 0x00, 0x00, 0x00, 0x00};
#define crssel_width 42
#define crssel_height 20
static unsigned char crssel_bits[] = {
   0x00, 0x00, 0x00, 0x00, 0x00, 0x00, 0x00, 0x00, 0x00, 0x00, 0x00, 0x00,
   0x60, 0x00, 0x00, 0x00, 0x00, 0x00, 0x90, 0x00, 0x00, 0x00, 0x00, 0x00,
   0x10, 0x52, 0x73, 0xa6, 0x01, 0x00, 0x10, 0xd2, 0x08, 0x69, 0x00, 0x00,
   0x10, 0x52, 0x30, 0x29, 0x00, 0x00, 0x90, 0x5a, 0x40, 0x29, 0x00, 0x00,
   0x60, 0x54, 0x38, 0x26, 0x00, 0x00, 0x00, 0x00, 0x00, 0x00, 0x00, 0x00,
   0x00, 0x00, 0x00, 0x00, 0x00, 0x00, 0x60, 0x40, 0x00, 0x00, 0x00, 0x00,
   0x90, 0x40, 0x00, 0x04, 0x00, 0x00, 0x10, 0x4c, 0xc6, 0x0e, 0x00, 0x00,
   0x60, 0x52, 0x29, 0x04, 0x00, 0x00, 0x80, 0x4e, 0x27, 0x04, 0x00, 0x00,
   0x90, 0x42, 0x21, 0x04, 0x00, 0x00, 0x60, 0x5c, 0xce, 0x08, 0x00, 0x00,
   0x00, 0x00, 0x00, 0x00, 0x00, 0x00, 0x00, 0x00, 0x00, 0x00, 0x00, 0x00};
#define del_width 42
#define del_height 20
static unsigned char del_bits[] = {
   0x00, 0x00, 0x00, 0x00, 0x00, 0x00, 0x00, 0x00, 0x08, 0x00, 0x00, 0x00,
   0x00, 0xc0, 0x04, 0x00, 0x00, 0x00, 0x00, 0x20, 0x03, 0x00, 0x00, 0x00,
   0x00, 0x20, 0x01, 0x00, 0x00, 0x00, 0x00, 0xc0, 0x00, 0x00, 0x00, 0x00,
   0x00, 0x47, 0x00, 0x00, 0x00, 0x00, 0x80, 0x28, 0x00, 0x00, 0x00, 0x00,
   0x00, 0x18, 0x00, 0x00, 0x00, 0x00, 0x00, 0x17, 0x00, 0x00, 0x00, 0x00,
   0x80, 0x1a, 0x00, 0x00, 0x00, 0x00, 0x80, 0x11, 0x00, 0x00, 0x00, 0x00,
   0x80, 0x18, 0x00, 0x00, 0x00, 0x00, 0x40, 0x17, 0x00, 0x00, 0x00, 0x00,
   0x20, 0x00, 0x00, 0x00, 0x00, 0x00, 0x10, 0x00, 0x00, 0x00, 0x00, 0x00,
   0x00, 0x00, 0x00, 0x00, 0x00, 0x00, 0x00, 0x00, 0x00, 0x00, 0x00, 0x00,
   0x00, 0x00, 0x00, 0x00, 0x00, 0x00, 0x00, 0x00, 0x00, 0x00, 0x00, 0x00};
#define down_width 30
#define down_height 20
static unsigned char down_bits[] = {
   0x00, 0x00, 0x00, 0x00, 0x00, 0x00, 0x00, 0x00, 0x00, 0x00, 0x00, 0x00,
   0x00, 0xe0, 0x01, 0x00, 0x00, 0xe0, 0x01, 0x00, 0x00, 0xe0, 0x01, 0x00,
   0x00, 0xe0, 0x01, 0x00, 0x00, 0xe0, 0x01, 0x00, 0x00, 0xe0, 0x01, 0x00,
   0x00, 0xe0, 0x01, 0x00, 0x00, 0xe0, 0x01, 0x00, 0x00, 0xe0, 0x01, 0x00,
   0x00, 0xfc, 0x0f, 0x00, 0x00, 0xf8, 0x07, 0x00, 0x00, 0xf0, 0x03, 0x00,
   0x00, 0xe0, 0x01, 0x00, 0x00, 0xc0, 0x00, 0x00, 0x00, 0x00, 0x00, 0x00,
   0x00, 0x00, 0x00, 0x00, 0x00, 0x00, 0x00, 0x00};
#define dup_width 42
#define dup_height 20
static unsigned char dup_bits[] = {
   0x00, 0x00, 0x00, 0x00, 0x00, 0x00, 0x00, 0x00, 0x00, 0x00, 0x00, 0x00,
   0x00, 0x00, 0x00, 0x00, 0x00, 0x00, 0x00, 0x00, 0x00, 0x00, 0x00, 0x00,
   0x00, 0x00, 0x00, 0x00, 0x00, 0x00, 0x00, 0x00, 0x00, 0x00, 0x00, 0x00,
   0x70, 0x00, 0x00, 0x00, 0x00, 0x00, 0x90, 0x00, 0x00, 0x00, 0x00, 0x00,
   0x90, 0xd2, 0x01, 0x00, 0x00, 0x00, 0x90, 0x52, 0x02, 0x00, 0x00, 0x00,
   0x90, 0x52, 0x02, 0x00, 0x00, 0x00, 0x90, 0xda, 0x01, 0x00, 0x00, 0x00,
   0x70, 0x54, 0x00, 0x00, 0x00, 0x00, 0x00, 0x40, 0x00, 0x00, 0x00, 0x00,
   0x00, 0x00, 0x00, 0x00, 0x00, 0x00, 0x00, 0x00, 0x00, 0x00, 0x00, 0x00,
   0x00, 0x00, 0x00, 0x00, 0x00, 0x00, 0x00, 0x00, 0x00, 0x00, 0x00, 0x00,
   0x00, 0x00, 0x00, 0x00, 0x00, 0x00, 0x00, 0x00, 0x00, 0x00, 0x00, 0x00};
#define eeof_width 42
#define eeof_height 20
static unsigned char eeof_bits[] = {
   0x00, 0x00, 0x00, 0x00, 0x00, 0x00, 0x00, 0x00, 0x00, 0x00, 0x00, 0x00,
   0xf0, 0x00, 0x00, 0x00, 0x00, 0x00, 0x10, 0x00, 0x00, 0x00, 0x00, 0x00,
   0x10, 0xda, 0x38, 0x03, 0x00, 0x00, 0x70, 0x06, 0x85, 0x04, 0x00, 0x00,
   0x10, 0xc2, 0x99, 0x03, 0x00, 0x00, 0x10, 0x22, 0xa1, 0x00, 0x00, 0x00,
   0xf0, 0xc2, 0x1d, 0x07, 0x00, 0x00, 0x00, 0x00, 0x00, 0x00, 0x00, 0x00,
   0x00, 0x00, 0x00, 0x00, 0x00, 0x00, 0xf0, 0xcc, 0x03, 0x00, 0x00, 0x00,
   0x10, 0x52, 0x00, 0x00, 0x00, 0x00, 0x10, 0x52, 0x00, 0x00, 0x00, 0x00,
   0x70, 0xd2, 0x01, 0x00, 0x00, 0x00, 0x10, 0x52, 0x00, 0x00, 0x00, 0x00,
   0x10, 0x52, 0x00, 0x00, 0x00, 0x00, 0xf0, 0x4c, 0x00, 0x00, 0x00, 0x00,
   0x00, 0x00, 0x00, 0x00, 0x00, 0x00, 0x00, 0x00, 0x00, 0x00, 0x00, 0x00};
#define einp_width 42
#define einp_height 20
static unsigned char einp_bits[] = {
   0x00, 0x00, 0x00, 0x00, 0x00, 0x00, 0x00, 0x00, 0x00, 0x00, 0x00, 0x00,
   0xf0, 0x00, 0x00, 0x00, 0x00, 0x00, 0x10, 0x00, 0x00, 0x00, 0x00, 0x00,
   0x10, 0xda, 0x38, 0x03, 0x00, 0x00, 0x70, 0x06, 0x85, 0x04, 0x00, 0x00,
   0x10, 0xc2, 0x99, 0x03, 0x00, 0x00, 0x10, 0x22, 0xa1, 0x00, 0x00, 0x00,
   0xf0, 0xc2, 0x1d, 0x07, 0x00, 0x00, 0x00, 0x00, 0x00, 0x00, 0x00, 0x00,
   0x00, 0x00, 0x00, 0x00, 0x00, 0x00, 0x70, 0x00, 0x00, 0x00, 0x00, 0x00,
   0x20, 0x00, 0x00, 0x01, 0x00, 0x00, 0x20, 0xe5, 0xa4, 0x03, 0x00, 0x00,
   0x20, 0x2b, 0x25, 0x01, 0x00, 0x00, 0x20, 0x29, 0x25, 0x01, 0x00, 0x00,
   0x20, 0xe9, 0x34, 0x01, 0x00, 0x00, 0x70, 0x29, 0x28, 0x02, 0x00, 0x00,
   0x00, 0x20, 0x00, 0x00, 0x00, 0x00, 0x00, 0x00, 0x00, 0x00, 0x00, 0x00};
#define enter_width 42
#define enter_height 20
static unsigned char enter_bits[] = {
   0x00, 0x00, 0x00, 0x00, 0x00, 0x00, 0x00, 0x00, 0x00, 0x00, 0x00, 0x00,
   0x00, 0x00, 0x00, 0x00, 0x00, 0x00, 0x00, 0x00, 0x00, 0x00, 0x00, 0x00,
   0x00, 0x00, 0x00, 0x00, 0x00, 0x00, 0x00, 0x00, 0x00, 0x00, 0x00, 0x00,
   0xf0, 0x00, 0x00, 0x00, 0x00, 0x00, 0x10, 0x80, 0x00, 0x00, 0x00, 0x00,
   0x10, 0xca, 0x99, 0x06, 0x00, 0x00, 0x70, 0x96, 0xa4, 0x01, 0x00, 0x00,
   0x10, 0x92, 0x9c, 0x00, 0x00, 0x00, 0x10, 0x92, 0x84, 0x00, 0x00, 0x00,
   0xf0, 0x12, 0xb9, 0x00, 0x00, 0x00, 0x00, 0x00, 0x00, 0x00, 0x00, 0x00,
   0x00, 0x00, 0x00, 0x00, 0x00, 0x00, 0x00, 0x00, 0x00, 0x00, 0x00, 0x00,
   0x00, 0x00, 0x00, 0x00, 0x00, 0x00, 0x00, 0x00, 0x00, 0x00, 0x00, 0x00,
   0x00, 0x00, 0x00, 0x00, 0x00, 0x00, 0x00, 0x00, 0x00, 0x00, 0x00, 0x00};
#define fldmrk_width 42
#define fldmrk_height 20
static unsigned char fldmrk_bits[] = {
   0x00, 0x00, 0x00, 0x00, 0x00, 0x00, 0x00, 0x00, 0x00, 0x00, 0x00, 0x00,
   0xf0, 0x02, 0x21, 0x00, 0x00, 0x00, 0x10, 0x00, 0x21, 0x00, 0x00, 0x00,
   0x10, 0x32, 0x29, 0x00, 0x00, 0x00, 0x70, 0x4a, 0x35, 0x00, 0x00, 0x00,
   0x10, 0x3a, 0x25, 0x00, 0x00, 0x00, 0x10, 0x0a, 0x35, 0x00, 0x00, 0x00,
   0x10, 0x72, 0x29, 0x00, 0x00, 0x00, 0x00, 0x00, 0x00, 0x00, 0x00, 0x00,
   0x00, 0x00, 0x00, 0x00, 0x00, 0x00, 0x10, 0x01, 0x10, 0x00, 0x00, 0x00,
   0xb0, 0x01, 0x10, 0x00, 0x00, 0x00, 0x50, 0x99, 0x96, 0x00, 0x00, 0x00,
   0x50, 0xa1, 0x51, 0x00, 0x00, 0x00, 0x10, 0xb9, 0x30, 0x00, 0x00, 0x00,
   0x10, 0xa5, 0x50, 0x00, 0x00, 0x00, 0x10, 0xb9, 0x90, 0x00, 0x00, 0x00,
   0x00, 0x00, 0x00, 0x00, 0x00, 0x00, 0x00, 0x00, 0x00, 0x00, 0x00, 0x00};
#define home_width 30
#define home_height 20
static unsigned char home_bits[] = {
   0x00, 0x00, 0x00, 0x00, 0x00, 0x00, 0x00, 0x00, 0x00, 0x00, 0x00, 0x00,
   0xc0, 0xff, 0x03, 0x00, 0x40, 0x00, 0x00, 0x00, 0x40, 0x00, 0x00, 0x00,
   0x40, 0x00, 0x00, 0x00, 0x40, 0xfc, 0x01, 0x00, 0x40, 0xfc, 0x00, 0x00,
   0x40, 0x7c, 0x00, 0x00, 0x40, 0xfc, 0x00, 0x00, 0x40, 0xfc, 0x01, 0x00,
   0x40, 0xec, 0x03, 0x00, 0x40, 0xc4, 0x07, 0x00, 0x40, 0x80, 0x0f, 0x00,
   0x00, 0x00, 0x07, 0x00, 0x00, 0x00, 0x02, 0x00, 0x00, 0x00, 0x00, 0x00,
   0x00, 0x00, 0x00, 0x00, 0x00, 0x00, 0x00, 0x00};
#define ins_width 42
#define ins_height 20
static unsigned char ins_bits[] = {
   0x00, 0x00, 0x00, 0x00, 0x00, 0x00, 0x00, 0x00, 0x00, 0x00, 0x00, 0x00,
   0x00, 0x00, 0x00, 0x00, 0x00, 0x00, 0x00, 0x02, 0x00, 0x00, 0x00, 0x00,
   0x00, 0x05, 0x00, 0x00, 0x00, 0x00, 0x80, 0x08, 0x00, 0x00, 0x00, 0x00,
   0x40, 0x10, 0x00, 0x00, 0x00, 0x00, 0x20, 0x20, 0x00, 0x00, 0x00, 0x00,
   0x10, 0x47, 0x00, 0x00, 0x00, 0x00, 0x88, 0x88, 0x00, 0x00, 0x00, 0x00,
   0x00, 0x10, 0x00, 0x00, 0x00, 0x00, 0x00, 0x17, 0x00, 0x00, 0x00, 0x00,
   0x80, 0x18, 0x00, 0x00, 0x00, 0x00, 0x80, 0x10, 0x00, 0x00, 0x00, 0x00,
   0x80, 0x18, 0x00, 0x00, 0x00, 0x00, 0x00, 0x17, 0x00, 0x00, 0x00, 0x00,
   0x00, 0x00, 0x00, 0x00, 0x00, 0x00, 0x00, 0x00, 0x00, 0x00, 0x00, 0x00,
   0x00, 0x00, 0x00, 0x00, 0x00, 0x00, 0x00, 0x00, 0x00, 0x00, 0x00, 0x00};
#define left_width 30
#define left_height 20
static unsigned char left_bits[] = {
   0x00, 0x00, 0x00, 0x00, 0x00, 0x00, 0x00, 0x00, 0x00, 0x00, 0x00, 0x00,
   0x00, 0x00, 0x00, 0x00, 0x00, 0x10, 0x00, 0x00, 0x00, 0x18, 0x00, 0x00,
   0x00, 0x1c, 0x00, 0x00, 0x00, 0x1e, 0x00, 0x00, 0x00, 0xff, 0xff, 0x00,
   0x80, 0xff, 0xff, 0x00, 0x80, 0xff, 0xff, 0x00, 0x00, 0xff, 0xff, 0x00,
   0x00, 0x1e, 0x00, 0x00, 0x00, 0x1c, 0x00, 0x00, 0x00, 0x18, 0x00, 0x00,
   0x00, 0x10, 0x00, 0x00, 0x00, 0x00, 0x00, 0x00, 0x00, 0x00, 0x00, 0x00,
   0x00, 0x00, 0x00, 0x00, 0x00, 0x00, 0x00, 0x00};
#define moncse_width 42
#define moncse_height 20
static unsigned char moncse_bits[] = {
   0x00, 0x00, 0x00, 0x00, 0x00, 0x00, 0x00, 0x00, 0x00, 0x00, 0x00, 0x00,
   0x10, 0x01, 0x00, 0x00, 0x00, 0x00, 0xb0, 0x01, 0x00, 0x00, 0x00, 0x00,
   0x50, 0x99, 0x62, 0x00, 0x00, 0x00, 0x50, 0xa5, 0x95, 0x00, 0x00, 0x00,
   0x10, 0xa5, 0x94, 0x00, 0x00, 0x00, 0x10, 0xa5, 0x94, 0x00, 0x00, 0x00,
   0x10, 0x99, 0x64, 0x00, 0x00, 0x00, 0x00, 0x00, 0x00, 0x00, 0x00, 0x00,
   0x00, 0x00, 0x00, 0x00, 0x00, 0x00, 0x60, 0x00, 0x00, 0x00, 0x00, 0x00,
   0x90, 0x00, 0x00, 0x00, 0x00, 0x00, 0x10, 0x8c, 0x33, 0x00, 0x00, 0x00,
   0x10, 0x50, 0x48, 0x00, 0x00, 0x00, 0x10, 0x9c, 0x79, 0x00, 0x00, 0x00,
   0x90, 0x12, 0x0a, 0x00, 0x00, 0x00, 0x60, 0xdc, 0x71, 0x00, 0x00, 0x00,
   0x00, 0x00, 0x00, 0x00, 0x00, 0x00, 0x00, 0x00, 0x00, 0x00, 0x00, 0x00};
#define reset_width 42
#define reset_height 20
static unsigned char reset_bits[] = {
   0x00, 0x00, 0x00, 0x00, 0x00, 0x00, 0x00, 0x00, 0x00, 0x00, 0x00, 0x00,
   0x00, 0x00, 0x00, 0x00, 0x00, 0x00, 0x00, 0x00, 0x00, 0x00, 0x00, 0x00,
   0x00, 0x00, 0x00, 0x00, 0x00, 0x00, 0x00, 0x00, 0x00, 0x00, 0x00, 0x00,
   0x70, 0x00, 0x00, 0x00, 0x00, 0x00, 0x90, 0x00, 0x00, 0x02, 0x00, 0x00,
   0x90, 0x8c, 0x33, 0x07, 0x00, 0x00, 0x70, 0x52, 0x48, 0x02, 0x00, 0x00,
   0x50, 0x8e, 0x39, 0x02, 0x00, 0x00, 0x90, 0x02, 0x0a, 0x02, 0x00, 0x00,
   0x90, 0xdc, 0x71, 0x04, 0x00, 0x00, 0x00, 0x00, 0x00, 0x00, 0x00, 0x00,
   0x00, 0x00, 0x00, 0x00, 0x00, 0x00, 0x00, 0x00, 0x00, 0x00, 0x00, 0x00,
   0x00, 0x00, 0x00, 0x00, 0x00, 0x00, 0x00, 0x00, 0x00, 0x00, 0x00, 0x00,
   0x00, 0x00, 0x00, 0x00, 0x00, 0x00, 0x00, 0x00, 0x00, 0x00, 0x00, 0x00};
#define right_width 30
#define right_height 20
static unsigned char right_bits[] = {
   0x00, 0x00, 0x00, 0x00, 0x00, 0x00, 0x00, 0x00, 0x00, 0x00, 0x00, 0x00,
   0x00, 0x00, 0x00, 0x00, 0x00, 0x00, 0x04, 0x00, 0x00, 0x00, 0x0c, 0x00,
   0x00, 0x00, 0x1c, 0x00, 0x00, 0x00, 0x3c, 0x00, 0x80, 0xff, 0x7f, 0x00,
   0x80, 0xff, 0xff, 0x00, 0x80, 0xff, 0xff, 0x00, 0x80, 0xff, 0x7f, 0x00,
   0x00, 0x00, 0x3c, 0x00, 0x00, 0x00, 0x1c, 0x00, 0x00, 0x00, 0x0c, 0x00,
   0x00, 0x00, 0x04, 0x00, 0x00, 0x00, 0x00, 0x00, 0x00, 0x00, 0x00, 0x00,
   0x00, 0x00, 0x00, 0x00, 0x00, 0x00, 0x00, 0x00};
#define sysreq_width 42
#define sysreq_height 20
static unsigned char sysreq_bits[] = {
   0x00, 0x00, 0x00, 0x00, 0x00, 0x00, 0x00, 0x00, 0x00, 0x00, 0x00, 0x00,
   0x60, 0x00, 0x00, 0x00, 0x00, 0x00, 0x90, 0x00, 0x00, 0x00, 0x00, 0x00,
   0x10, 0x92, 0x03, 0x00, 0x00, 0x00, 0x60, 0x52, 0x00, 0x00, 0x00, 0x00,
   0x80, 0x92, 0x01, 0x00, 0x00, 0x00, 0x90, 0x14, 0x02, 0x00, 0x00, 0x00,
   0x60, 0xc8, 0x01, 0x00, 0x00, 0x00, 0x00, 0x04, 0x00, 0x00, 0x00, 0x00,
   0x00, 0x00, 0x00, 0x00, 0x00, 0x00, 0x70, 0x00, 0x00, 0x00, 0x00, 0x00,
   0x90, 0x00, 0x00, 0x00, 0x00, 0x00, 0x90, 0x8c, 0x03, 0x00, 0x00, 0x00,
   0x70, 0x52, 0x02, 0x00, 0x00, 0x00, 0x50, 0x4e, 0x02, 0x00, 0x00, 0x00,
   0x90, 0x82, 0x03, 0x00, 0x00, 0x00, 0x90, 0x1c, 0x02, 0x00, 0x00, 0x00,
   0x00, 0x00, 0x02, 0x00, 0x00, 0x00, 0x00, 0x00, 0x00, 0x00, 0x00, 0x00};
#define tab_width 42
#define tab_height 20
static unsigned char tab_bits[] = {
   0x00, 0x00, 0x00, 0x00, 0x00, 0x00, 0x00, 0x00, 0x00, 0x00, 0x00, 0x00,
   0x00, 0x00, 0x00, 0x00, 0x00, 0x00, 0x00, 0x00, 0x00, 0x00, 0x02, 0x00,
   0x00, 0x00, 0x00, 0x00, 0x02, 0x00, 0x00, 0x00, 0x00, 0x04, 0x02, 0x00,
   0x00, 0x00, 0x00, 0x0c, 0x02, 0x00, 0x00, 0x00, 0x00, 0x1c, 0x02, 0x00,
   0x00, 0xfc, 0xff, 0x3f, 0x02, 0x00, 0x00, 0xfc, 0xff, 0x7f, 0x02, 0x00,
   0x00, 0xfc, 0xff, 0x7f, 0x02, 0x00, 0x00, 0xfc, 0xff, 0x3f, 0x02, 0x00,
   0x00, 0x00, 0x00, 0x1c, 0x02, 0x00, 0x00, 0x00, 0x00, 0x0c, 0x02, 0x00,
   0x00, 0x00, 0x00, 0x04, 0x02, 0x00, 0x00, 0x00, 0x00, 0x00, 0x02, 0x00,
   0x00, 0x00, 0x00, 0x00, 0x02, 0x00, 0x00, 0x00, 0x00, 0x00, 0x00, 0x00,
   0x00, 0x00, 0x00, 0x00, 0x00, 0x00, 0x00, 0x00, 0x00, 0x00, 0x00, 0x00};
#define up_width 30
#define up_height 20
static unsigned char up_bits[] = {
   0x00, 0x00, 0x00, 0x00, 0x00, 0x00, 0x00, 0x00, 0x00, 0x00, 0x00, 0x00,
   0x00, 0xc0, 0x00, 0x00, 0x00, 0xe0, 0x01, 0x00, 0x00, 0xf0, 0x03, 0x00,
   0x00, 0xf8, 0x07, 0x00, 0x00, 0xfc, 0x0f, 0x00, 0x00, 0xe0, 0x01, 0x00,
   0x00, 0xe0, 0x01, 0x00, 0x00, 0xe0, 0x01, 0x00, 0x00, 0xe0, 0x01, 0x00,
   0x00, 0xe0, 0x01, 0x00, 0x00, 0xe0, 0x01, 0x00, 0x00, 0xe0, 0x01, 0x00,
   0x00, 0xe0, 0x01, 0x00, 0x00, 0xe0, 0x01, 0x00, 0x00, 0x00, 0x00, 0x00,
   0x00, 0x00, 0x00, 0x00, 0x00, 0x00, 0x00, 0x00};
