#define ssl_width 14
#define ssl_height 14
static unsigned char ssl_bits[] = {
   0xf0, 0x03, 0x08, 0x04, 0xe4, 0x09, 0x14, 0x0a, 0x14, 0x0a, 0x14, 0x0a,
   0xff, 0x3f, 0xff, 0x3f, 0x6f, 0x3d, 0xb7, 0x3d, 0x6f, 0x3d, 0xb7, 0x39,
   0xff, 0x3f, 0xff, 0x3f};
